<svg width="220" height="59" viewBox="0 0 220 59" fill="none" xmlns="http://www.w3.org/2000/svg">
<rect width="220" height="59" fill="white"/>
<path fill-rule="evenodd" clip-rule="evenodd" d="M96.5182 45.5514L104.484 22.2372L109.338 36.4425L112.06 28.166L106.985 12.7819H102.168L94.2027 36.9302L86.4677 12.8743H80.3071L91.609 45.5514H96.5182Z" fill="#202020"/>
<path fill-rule="evenodd" clip-rule="evenodd" d="M71.6926 29.1429C71.6926 30.7199 71.4216 32.209 70.8824 33.6158C70.3417 35.0212 69.5934 36.2419 68.6361 37.2779C67.6788 38.3124 66.5283 39.132 65.186 39.7351C63.8423 40.3368 62.3674 40.6384 60.7627 40.6384C59.158 40.6384 57.6759 40.3296 56.3163 39.7106C54.9582 39.093 53.7933 38.2576 52.8186 37.2072C51.8469 36.1568 51.09 34.9274 50.5493 33.522C50.0087 32.1167 49.739 30.6262 49.739 29.0491C49.739 27.472 50.0087 25.9829 50.5493 24.5761C51.09 23.1693 51.8382 21.9486 52.7956 20.914C53.7529 19.8795 54.9034 19.0599 56.2457 18.4568C57.588 17.8537 59.0643 17.5521 60.669 17.5521C62.2736 17.5521 63.7558 17.8623 65.1153 18.4799C66.4735 19.0974 67.6399 19.9314 68.6116 20.9833C69.5848 22.0337 70.3403 23.2631 70.8809 24.6685C71.4216 26.0738 71.6912 27.5658 71.6912 29.1414M72.895 40.8923C74.4074 39.3629 75.581 37.5795 76.4158 35.5392C77.2491 33.499 77.6658 31.3375 77.6658 29.0491C77.6658 26.7606 77.2491 24.5992 76.4158 22.5604C75.5825 20.5201 74.4233 18.7439 72.9426 17.2303C71.4605 15.7153 69.6843 14.5191 67.6153 13.6375C65.5464 12.7574 63.2612 12.3173 60.7612 12.3173C58.2612 12.3173 55.9761 12.766 53.9072 13.6606C51.8382 14.5567 50.0476 15.7701 48.5352 17.2996C47.0228 18.8291 45.8492 20.6139 45.0144 22.6542C44.1796 24.693 43.7644 26.8559 43.7644 29.1429C43.7644 31.4298 44.1811 33.5927 45.0144 35.633C45.8478 37.6718 47.0055 39.4494 48.4876 40.963C49.9697 42.4781 51.7445 43.6742 53.8134 44.5558C55.8824 45.4374 58.1675 45.8775 60.6675 45.8775C63.1675 45.8775 65.4542 45.4302 67.5216 44.5342C69.5905 43.6382 71.3812 42.4247 72.8936 40.8952L72.895 40.8923Z" fill="#202020"/>
<path fill-rule="evenodd" clip-rule="evenodd" d="M36.8627 45.3206V12.8742H31.2125V26.3624H15.6502V12.8742H10V45.3206H15.6502V31.6463H31.2125V45.3206H36.8627Z" fill="#202020"/>
<path fill-rule="evenodd" clip-rule="evenodd" d="M124.723 10H130.617L117.5 48.3333H112.116L124.723 10Z" fill="#202020"/>
<path fill-rule="evenodd" clip-rule="evenodd" d="M149.294 39.6183C148.26 40.3599 146.863 40.7307 145.102 40.7307C143.065 40.7307 141.243 40.3671 139.637 39.6413C138.032 38.9156 136.442 37.8724 134.867 36.5132L131.439 40.5922C133.384 42.354 135.499 43.6584 137.784 44.5082C140.069 45.3581 142.463 45.7823 144.963 45.7823C146.661 45.7823 148.219 45.5659 149.64 45.133C151.052 44.7001 152.272 44.0667 153.276 43.2327C154.286 42.3987 155.074 41.3786 155.644 40.1723C156.208 38.9675 156.494 37.5924 156.494 36.0471C156.494 34.6879 156.27 33.5047 155.822 32.5019C155.373 31.4977 154.71 30.6161 153.845 29.86C152.982 29.1025 151.884 28.4604 150.572 27.9366C149.26 27.4114 147.748 26.9309 146.05 26.4995C144.497 26.1287 143.224 25.7737 142.213 25.4332C141.21 25.0941 140.422 24.7233 139.843 24.3207C139.272 23.9196 138.878 23.4867 138.662 23.0221C138.446 22.5589 138.338 22.002 138.338 21.3541C138.338 20.2734 138.8 19.3543 139.728 18.5953C140.655 17.8392 141.951 17.4598 143.619 17.4598C145.101 17.4598 146.567 17.7455 148.019 18.3168C149.469 18.8882 150.936 19.715 152.418 20.7957L155.476 16.4858C153.809 15.1569 152.026 14.1454 150.127 13.45C148.228 12.7545 146.09 12.4067 143.713 12.4067C142.106 12.4067 140.626 12.6318 139.273 13.0791C137.915 13.5279 136.756 14.1685 135.792 15.0025C134.827 15.8365 134.07 16.8335 133.514 17.9922C132.966 19.1508 132.687 20.4408 132.687 21.862C132.687 23.3771 132.927 24.6598 133.405 25.7102C133.884 26.7606 134.586 27.6567 135.497 28.3983C136.409 29.14 137.543 29.7575 138.886 30.2524C140.236 30.7474 141.773 31.1947 143.509 31.5972C145.023 31.968 146.25 32.323 147.199 32.6635C148.14 33.004 148.881 33.3676 149.429 33.7529C149.97 34.1382 150.34 34.5638 150.541 35.027C150.741 35.4901 150.842 36.0154 150.842 36.6026C150.842 37.8695 150.324 38.8737 149.289 39.6154M194.425 22.5575C193.591 20.5172 192.434 18.741 190.952 17.2275C189.469 15.7124 187.695 14.5163 185.626 13.6347C183.557 12.7545 181.272 12.3144 178.77 12.3144C176.269 12.3144 173.984 12.7631 171.915 13.6577C169.847 14.5538 168.055 15.7672 166.543 17.2967C165.03 18.8262 163.857 20.611 163.023 22.6513C162.19 24.6901 161.773 26.853 161.773 29.14C161.773 31.427 162.19 33.5899 163.023 35.6301C163.857 37.6689 165.016 39.4466 166.498 40.9602C167.98 42.4752 169.755 43.6713 171.824 44.553C173.893 45.4346 176.178 45.8746 178.679 45.8746C181.181 45.8746 183.465 45.4273 185.535 44.5313C187.602 43.6353 189.394 42.4218 190.907 40.8923C192.421 39.3629 193.593 37.5795 194.428 35.5392C195.261 33.499 195.679 31.3375 195.679 29.0491C195.679 26.7606 195.262 24.5992 194.428 22.5604L194.425 22.5575ZM188.89 33.6129C188.349 35.0183 187.601 36.239 186.644 37.275C185.686 38.3096 184.536 39.1291 183.193 39.7322C181.85 40.3339 180.376 40.6355 178.77 40.6355C177.164 40.6355 175.683 40.3267 174.324 39.7077C172.966 39.0902 171.799 38.2547 170.826 37.2043C169.854 36.1539 169.097 34.9245 168.557 33.5192C168.016 32.1123 167.747 30.6233 167.747 29.0462C167.747 27.4691 168.016 25.98 168.557 24.5732C169.097 23.1664 169.846 21.9457 170.803 20.9112C171.76 19.8766 172.911 19.057 174.253 18.4539C175.595 17.8508 177.07 17.5492 178.676 17.5492C180.283 17.5492 181.765 17.8594 183.123 18.477C184.481 19.0946 185.647 19.9285 186.619 20.9804C187.592 22.0308 188.349 23.2602 188.888 24.6656C189.429 26.0709 189.699 27.5629 189.699 29.1385C189.699 30.7142 189.429 32.2061 188.888 33.6129H188.89Z" fill="url(#paint0_linear_569_17)"/>
<path d="M203.296 17.4295H202.287V13.8799H200.96V12.9853H204.622V13.8799H203.296V17.4295ZM207.823 16.3761H207.736L206.511 14.4282V17.4295H205.559V12.9853H206.626L207.794 14.8611L208.962 12.9853H210V17.4295H209.048V14.4282L207.823 16.3761Z" fill="#202020"/>
<defs>
<linearGradient id="paint0_linear_569_17" x1="10.0045" y1="29.1691" x2="210.004" y2="29.1691" gradientUnits="userSpaceOnUse">
<stop stop-color="#3DA9FD"/>
<stop offset="0.57" stop-color="#5D73E5"/>
<stop offset="1" stop-color="#6E56CD"/>
</linearGradient>
</defs>
</svg>
